<?xml version="1.0" encoding="UTF-8" standalone="no"?>
<!-- Created with Inkscape (http://www.inkscape.org/) -->

<svg
   xmlns:dc="http://purl.org/dc/elements/1.1/"
   xmlns:cc="http://creativecommons.org/ns#"
   xmlns:rdf="http://www.w3.org/1999/02/22-rdf-syntax-ns#"
   xmlns:svg="http://www.w3.org/2000/svg"
   xmlns="http://www.w3.org/2000/svg"
   xmlns:sodipodi="http://sodipodi.sourceforge.net/DTD/sodipodi-0.dtd"
   xmlns:inkscape="http://www.inkscape.org/namespaces/inkscape"
   width="512"
   height="512"
   viewBox="0 0 135.46666 135.46666"
   version="1.1"
   id="svg8"
   inkscape:version="0.92.4 (5da689c313, 2019-01-14)"
   sodipodi:docname="r7-labs.svg"
   inkscape:export-filename="/home/redhound-game/Desktop/My Workspace/R7.Labs Logo/r7-labs.svg.png"
   inkscape:export-xdpi="96"
   inkscape:export-ydpi="96">
  <defs
     id="defs2" />
  <sodipodi:namedview
     id="base"
     pagecolor="#ffffff"
     bordercolor="#666666"
     borderopacity="1.0"
     inkscape:pageopacity="0.0"
     inkscape:pageshadow="2"
     inkscape:zoom="1.4"
     inkscape:cx="139.83476"
     inkscape:cy="223.01418"
     inkscape:document-units="mm"
     inkscape:current-layer="layer1"
     showgrid="true"
     inkscape:window-width="1920"
     inkscape:window-height="1008"
     inkscape:window-x="0"
     inkscape:window-y="40"
     inkscape:window-maximized="1"
     units="px"
     inkscape:snap-global="true"
     inkscape:pagecheckerboard="true">
    <inkscape:grid
       type="xygrid"
       id="grid812"
       empspacing="4" />
  </sodipodi:namedview>
  <metadata
     id="metadata5">
    <rdf:RDF>
      <cc:Work
         rdf:about="">
        <dc:format>image/svg+xml</dc:format>
        <dc:type
           rdf:resource="http://purl.org/dc/dcmitype/StillImage" />
        <dc:title></dc:title>
      </cc:Work>
    </rdf:RDF>
  </metadata>
  <g
     inkscape:label="Layer 1"
     inkscape:groupmode="layer"
     id="layer1"
     transform="translate(0,-161.53336)">
    <rect
       style="fill:#808080;stroke:#1a1a1a;stroke-width:0.79375;stroke-miterlimit:4;stroke-dasharray:none;stroke-dashoffset:0"
       id="rect814"
       width="16.933332"
       height="118.53333"
       x="110.06667"
       y="170.00003"
       rx="8.4666662"
       ry="8.4666662" />
    <rect
       style="fill:#808080;stroke:#1a1a1a;stroke-width:0.79375;stroke-miterlimit:4;stroke-dasharray:none;stroke-dashoffset:0"
       id="rect814-3"
       width="16.933332"
       height="42.333332"
       x="170.00003"
       y="-50.799999"
       rx="8.4666662"
       ry="8.4666662"
       transform="rotate(90)" />
    <rect
       style="fill:#808080;stroke:#1a1a1a;stroke-width:0.79375;stroke-miterlimit:4;stroke-dasharray:none;stroke-dashoffset:0"
       id="rect814-3-6"
       width="16.933332"
       height="42.333332"
       x="170.00003"
       y="-101.6"
       rx="8.4666662"
       ry="8.4666662"
       transform="rotate(90)" />
    <path
       style="fill:#ff0000;stroke:#000000;stroke-width:0.79374999;stroke-miterlimit:4;stroke-dasharray:none;stroke-dashoffset:0"
       d="m 101.6,261.01669 0,19.05003 c 0,4.69054 -3.776134,8.46667 -8.466667,8.46667 H 63.5 c -4.690533,0 -8.466666,-3.77613 -8.466666,-8.46667 l -2e-6,-27.51669 c 0,0 26.271771,-1e-5 38.100001,-1e-5 4.690533,0 8.466667,3.77613 8.466667,8.46667 z"
       id="rect814-3-7-5-3"
       inkscape:connector-curvature="0"
       sodipodi:nodetypes="sssssccs" />
    <path
       style="fill:#ff0000;stroke:#000000;stroke-width:3;stroke-miterlimit:4;stroke-dasharray:none;stroke-dashoffset:0"
       d="M 64 128 C 46.272001 128 32 142.27197 32 160 L 32 320 L 32 448 C 32 465.72799 46.272001 480 64 480 L 176 480 C 193.728 480 208 465.72799 208 448 L 208 352 L 352 352 C 369.728 352 384 337.72799 384 320 L 384 160 C 384 142.27197 369.728 128 352 128 L 64 128 z M 192 192 L 288 192 C 305.728 192 320 206.272 320 224 L 320 256 C 320 273.728 305.728 288 288 288 L 192 288 C 174.272 288 160 273.728 160 256 L 160 224 C 160 206.272 174.272 192 192 192 z "
       transform="matrix(0.26458333,0,0,0.26458333,0,161.53336)"
       id="rect814-3-7-5" />
    <path
       style="fill:none;stroke:#000000;stroke-width:0.79374999;stroke-miterlimit:4;stroke-dasharray:none;stroke-dashoffset:0"
       d="M 76.199998,254.6667 H 33.866669 C 29.176136,254.6667 25.4,250.89057 25.4,246.20003"
       id="rect814-3-5-2"
       inkscape:connector-curvature="0"
       sodipodi:nodetypes="csc" />
    <path
       style="fill:none;stroke:#000000;stroke-width:0.79374999;stroke-miterlimit:4;stroke-dasharray:none;stroke-dashoffset:0"
       d="m 25.4,246.20003 v -2.11667"
       id="rect814-3-5-2-9"
       inkscape:connector-curvature="0"
       sodipodi:nodetypes="cc" />
  </g>
</svg>
